<svg data-v-fde0c5aa="" xmlns="http://www.w3.org/2000/svg" viewBox="0 0 300 300" class="iconLeft"><!----><defs data-v-fde0c5aa=""><!----></defs><rect data-v-fde0c5aa="" fill="#5E6FD3" x="0" y="0" width="300px" height="300px" class="logo-background-square"></rect><defs data-v-fde0c5aa=""><!----></defs><g data-v-fde0c5aa="" id="7aaae2a9-e0ed-49d5-a067-6c49b098e294" fill="#ffffff" transform="matrix(3.56231689453125,0,0,3.56231689453125,109.5277236583907,130.66213619232053)"><path d="M1.93 3.43L1.93 3.43C2.28 3.25 2.94 3.01 3.50 3.00C4.05 2.97 4.23 3.11 4.30 3.42C4.35 3.74 4.07 4.07 3.91 4.34L0.18 10.01C-0.04 10.33 0.20 10.75 0.59 10.75L7.03 10.75C7.64 10.75 7.64 9.80 7.03 9.80L1.43 9.80L4.69 4.84C4.96 4.44 5.31 3.81 5.22 3.26C5.08 2.34 4.35 2.04 3.57 2.06C2.84 2.06 2.03 2.31 1.51 2.59C0.95 2.87 1.37 3.70 1.93 3.43ZM1.58 1.44L1.58 1.44C2.17 1.20 2.90 1.05 3.60 1.05C4.66 1.05 5.70 1.27 6.16 2.44C6.37 2.94 6.40 3.74 6.20 4.30C6.01 4.87 4.26 7.42 3.82 8.08C3.61 8.40 3.85 8.81 4.23 8.81L6.96 8.81C7.57 8.81 7.57 7.87 6.96 7.87L5.08 7.87L6.52 5.67C6.78 5.29 6.99 4.90 7.10 4.56C7.38 3.82 7.32 2.73 7.03 2.02C6.40 0.55 5.04 0.13 3.58 0.11C2.80 0.08 1.99 0.27 1.22 0.59C0.64 0.83 1.01 1.69 1.58 1.44ZM8.97 3.16L8.97 3.16L10.32 3.16L10.32 10.18C10.32 10.44 10.53 10.65 10.78 10.65C11.05 10.65 11.26 10.44 11.26 10.18L11.26 2.70C11.26 2.44 11.05 2.23 10.78 2.23L8.97 2.23C8.72 2.23 8.51 2.44 8.51 2.70C8.51 2.95 8.72 3.16 8.97 3.16ZM13.12 10.18L13.12 10.18L13.12 0.83C13.12 0.56 12.91 0.36 12.66 0.36L8.97 0.36C8.72 0.36 8.51 0.56 8.51 0.83C8.51 1.08 8.72 1.29 8.97 1.29L12.18 1.29L12.18 10.18C12.18 10.44 12.39 10.65 12.66 10.65C12.91 10.65 13.12 10.44 13.12 10.18ZM21.29 9.70L21.29 9.70L16.31 9.70L16.31 0.81C16.31 0.56 16.10 0.35 15.85 0.35C15.58 0.35 15.37 0.56 15.37 0.81L15.37 10.18C15.37 10.43 15.58 10.64 15.85 10.64L21.29 10.64C21.56 10.64 21.76 10.43 21.76 10.18C21.76 9.91 21.56 9.70 21.29 9.70ZM17.25 0.81L17.25 0.81L17.25 8.30C17.25 8.55 17.46 8.76 17.71 8.76L21.29 8.76C21.56 8.76 21.76 8.55 21.76 8.30C21.76 8.04 21.56 7.83 21.29 7.83L18.19 7.83L18.19 0.81C18.19 0.56 17.98 0.35 17.71 0.35C17.46 0.35 17.25 0.56 17.25 0.81ZM24.05 7.76C23.20 7.76 22.57 8.40 22.57 9.24C22.57 10.07 23.20 10.71 24.05 10.71C24.91 10.71 25.52 10.05 25.52 9.24C25.52 8.40 24.91 7.76 24.05 7.76ZM24.05 8.58C24.46 8.58 24.71 8.85 24.71 9.24C24.71 9.62 24.46 9.88 24.05 9.88C23.66 9.88 23.38 9.63 23.38 9.24C23.38 8.85 23.66 8.58 24.05 8.58ZM30.93 5.03L30.93 5.03C32.80 5.03 32.80 2.23 30.93 2.23L29.27 2.23C28.66 2.23 28.66 3.16 29.27 3.16L30.93 3.16C31.57 3.16 31.57 4.10 30.93 4.10C30.56 4.10 29.93 3.99 29.93 4.56C29.93 5.12 30.56 5.03 30.93 5.03ZM27.87 10.16L27.87 10.16L27.87 1.29L31.09 1.29C34.10 1.29 34.10 5.96 31.09 5.96L29.27 5.96C29.02 5.96 28.80 6.17 28.80 6.43L28.80 10.16C28.80 10.78 29.75 10.78 29.75 10.16L29.75 6.90L31.09 6.90C35.32 6.90 35.34 0.36 31.09 0.36L27.40 0.36C27.15 0.36 26.94 0.56 26.94 0.84L26.94 10.16C26.94 10.78 27.87 10.78 27.87 10.16ZM41.78 9.70L41.78 9.70L36.79 9.70L36.79 0.81C36.79 0.56 36.58 0.35 36.33 0.35C36.06 0.35 35.85 0.56 35.85 0.81L35.85 10.18C35.85 10.43 36.06 10.64 36.33 10.64L41.78 10.64C42.04 10.64 42.24 10.43 42.24 10.18C42.24 9.91 42.04 9.70 41.78 9.70ZM37.73 0.81L37.73 0.81L37.73 8.30C37.73 8.55 37.94 8.76 38.19 8.76L41.78 8.76C42.04 8.76 42.24 8.55 42.24 8.30C42.24 8.04 42.04 7.83 41.78 7.83L38.67 7.83L38.67 0.81C38.67 0.56 38.46 0.35 38.19 0.35C37.94 0.35 37.73 0.56 37.73 0.81Z"></path></g><defs data-v-fde0c5aa=""><!----></defs><g data-v-fde0c5aa="" id="388f8e08-603b-4f87-886b-07756df1ffb1" stroke="none" fill="#25347B" transform="matrix(0.7738685011863708,0,0,0.7738685011863708,29.201437885042207,110.59234443908166)"><path d="M53.734 56.649l-.002-.03a.247.247 0 0 0-.001.03h.003zM67.175 63.658c-.212.124-.428.24-.643.357 0 .002 0 .005-.002.007.206-.112.423-.233.645-.364zM48.14 65.142l-.002.003c.446.195.988.379 1.494.532l.008-.008a21.492 21.492 0 0 1-1.5-.527z"></path><path d="M49.631 65.678c.513.155.986.277 1.283.352-.43-.106-.853-.23-1.275-.36l-.008.008zM51.23 66.106l.004-.003c-.078-.02-.154-.032-.232-.052l.228.055zM66.199 64.198c-.509.267-1.027.507-1.55.729 0 .003-.002.006-.003.008.052-.022.678-.28 1.553-.737zM66.53 64.021l.002-.006c-.084.046-.166.096-.251.14.082-.043.166-.087.248-.134z"></path><path d="M50.339 20.544l-9.29 9.29a21.926 21.926 0 0 0-2.18 2.539c-.14.193-.27.394-.404.59a24.773 24.773 0 0 1 13.703.218l.76-.76L58.05 27.3c4.493-4.493 11.778-4.492 16.272.001 4.492 4.493 4.493 11.78 0 16.272l-5.84 5.84-1.2 1.201-1.17 1.17-.004.003-1.946 1.946a11.457 11.457 0 0 1-7.277 3.334v.004h-.003c-.557.049-1.035.051-1.444.035-.899-.04-1.42-.18-1.42-.18v-.002h-.004a11.445 11.445 0 0 1-6.123-3.192 11.458 11.458 0 0 1-3.16-5.938c-.012-.062-.02-.124-.03-.186a8.596 8.596 0 0 0-5.398 2.493l-3.094 3.094a21.64 21.64 0 0 0 4.841 7.378 21.654 21.654 0 0 0 10.236 5.752c.077.02.154.032.232.051a21.816 21.816 0 0 0 15.047-1.948c.085-.043.167-.092.25-.139.216-.116.432-.233.643-.358l.008-.004a21.823 21.823 0 0 0 4.321-3.355l9.29-9.289c8.488-8.488 8.487-22.25 0-30.738-8.488-8.488-22.25-8.49-30.738 0z"></path><path d="M51.06 81.301l9.288-9.289a21.928 21.928 0 0 0 2.18-2.54c.142-.194.271-.394.405-.59a24.76 24.76 0 0 1-13.702-.219l-.76.76-5.123 5.122c-4.493 4.494-11.778 4.493-16.272 0-4.493-4.494-4.493-11.778 0-16.272l5.84-5.84 1.201-1.2 1.169-1.17.004-.004 1.946-1.945a11.457 11.457 0 0 1 7.276-3.334v-.003h.002c.558-.05 1.036-.052 1.445-.035.898.037 1.42.178 1.42.178v.003h.004a11.445 11.445 0 0 1 6.123 3.19 11.452 11.452 0 0 1 3.16 5.938c.012.063.02.125.03.186a8.595 8.595 0 0 0 5.398-2.491l3.094-3.094a21.661 21.661 0 0 0-4.843-7.378 21.65 21.65 0 0 0-10.148-5.731 5.839 5.839 0 0 1-.087-.022c-.077-.019-.155-.033-.231-.051a21.815 21.815 0 0 0-14.966 1.903l-.083.043c-.084.045-.166.094-.25.14-.215.117-.431.234-.643.36l-.007.004a21.739 21.739 0 0 0-4.322 3.355l-9.288 9.288c-8.488 8.488-8.488 22.249 0 30.737 8.49 8.49 22.25 8.49 30.74.001zM67.183 63.653c-.003.002-.006.002-.008.005.002-.003.005-.003.008-.005zM66.199 64.198a1.52 1.52 0 0 0 .082-.044c-.026.016-.054.03-.082.044z"></path><path d="M53.734 56.652s.522.14 1.42.18v-.02c-.475-.023-.95-.08-1.42-.163v.003zM51.001 66.051z"></path><path d="M55.155 56.812c-.002.006-.001.012 0 .02.408.016.886.013 1.444-.036v-.003c-.48.035-.964.043-1.444.02zM56.602 56.793l-.002-.017-.002.017h.004z"></path><path d="M56.598 56.794l.002-.002.003.002-.003.003z"></path></g><!----></svg>